<svg width="499" height="469" viewBox="0 0 499 469" fill="none" xmlns="http://www.w3.org/2000/svg">
<path fill-rule="evenodd" clip-rule="evenodd" d="M451.917 218.443H46.75C38.1436 218.443 31.1667 225.43 31.1667 234.046C31.1667 242.662 38.1436 249.649 46.75 249.649H451.917C460.522 249.649 467.5 242.662 467.5 234.046C467.5 225.43 460.522 218.443 451.917 218.443ZM46.75 187.237C20.9306 187.237 0 208.195 0 234.046C0 259.897 20.9306 280.855 46.75 280.855H451.917C477.735 280.855 498.667 259.897 498.667 234.046C498.667 208.195 477.735 187.237 451.917 187.237H46.75Z" fill="black"/>
<path fill-rule="evenodd" clip-rule="evenodd" d="M451.917 405.679H46.75C38.1436 405.679 31.1667 412.666 31.1667 421.282C31.1667 429.898 38.1436 436.885 46.75 436.885H451.917C460.522 436.885 467.5 429.898 467.5 421.282C467.5 412.666 460.522 405.679 451.917 405.679ZM46.75 374.473C20.9306 374.473 0 395.431 0 421.282C0 447.133 20.9306 468.092 46.75 468.092H451.917C477.735 468.092 498.667 447.133 498.667 421.282C498.667 395.431 477.735 374.473 451.917 374.473H46.75Z" fill="black"/>
<path d="M451.917 30.7061H46.75C37.8669 30.7061 30.6667 37.9164 30.6667 46.8092C30.6667 55.702 37.8669 62.9123 46.75 62.9123H451.917C460.799 62.9123 468 55.702 468 46.8092C468 37.9164 460.799 30.7061 451.917 30.7061ZM0.5 46.8092C0.5 21.2326 21.2073 0.5 46.75 0.5H451.917C477.458 0.5 498.167 21.2327 498.167 46.8092C498.167 72.3857 477.458 93.1184 451.917 93.1184H46.75C21.2073 93.1184 0.5 72.3857 0.5 46.8092Z" fill="black" stroke="black"/>
</svg>
