<svg width="394" height="396" viewBox="0 0 394 396" fill="none" xmlns="http://www.w3.org/2000/svg">
<path fill-rule="evenodd" clip-rule="evenodd" d="M335.508 20.9167H57.099C52.234 20.9167 48.3688 24.1082 47.4357 28.3361C30.5159 104.999 23.9665 222.983 21.4603 302.558C20.2022 342.5 52.5124 375.073 92.8517 375.063L301.185 375.01C341.513 375 373.783 342.433 372.463 302.523C369.827 222.892 362.933 104.816 345.127 28.2094C344.158 24.0471 340.325 20.9167 335.508 20.9167ZM57.099 0.083374H335.508C349.465 0.083374 362.136 9.36796 365.419 23.4923C383.748 102.344 390.652 222.335 393.283 301.833C395.008 353.906 352.894 395.829 301.19 395.844L92.8569 395.896C41.1326 395.908 -1.00327 353.979 0.637151 301.902C3.13965 222.456 9.69986 102.649 27.0919 23.8461C30.2463 9.55421 42.9984 0.083374 57.099 0.083374Z" fill="black"/>
<path fill-rule="evenodd" clip-rule="evenodd" d="M103.25 104.25C109.003 104.25 113.667 108.914 113.667 114.667V145.917C113.667 157.796 123.194 168.227 141.378 176.231C158.967 183.975 180.938 187.583 197 187.583C213.063 187.583 235.033 183.975 252.623 176.231C270.806 168.227 280.333 157.796 280.333 145.917V114.667C280.333 108.914 284.998 104.25 290.75 104.25C296.502 104.25 301.167 108.914 301.167 114.667V145.917C301.167 170.856 281.077 186.467 261.017 195.3C240.36 204.392 215.454 208.417 197 208.417C178.546 208.417 153.64 204.392 132.984 195.3C112.923 186.467 92.8334 170.856 92.8334 145.917V114.667C92.8334 108.914 97.4971 104.25 103.25 104.25Z" fill="black"/>
</svg>
