<svg width="793" height="793" viewBox="0 0 793 793" fill="none" xmlns="http://www.w3.org/2000/svg">
<rect width="793" height="793" fill="white"/>
<path d="M507.498 376.993L333.498 206.993C303.498 177.993 255.498 225.993 285.498 253.993L431.498 396.993L285.498 539.993C255.498 568.993 303.498 616.993 333.498 587.993L507.498 416.993C518.498 406.993 518.498 387.993 507.498 376.993ZM459.498 396.993L299.498 240.993C287.498 229.993 308.498 208.993 320.498 220.993L494.498 390.993C497.498 393.993 497.498 399.993 494.498 403.993L320.498 573.993C308.498 584.993 287.498 564.993 299.498 553.993L459.498 396.993Z" fill="black"/>
</svg>
