<svg width="793" height="793" viewBox="0 0 793 793" fill="none" xmlns="http://www.w3.org/2000/svg">
<rect width="793" height="793" fill="white"/>
<path d="M284.25 417.983L458.25 587.983C488.25 616.983 536.25 568.983 506.25 540.983L360.25 397.983L506.25 254.983C536.25 225.983 488.25 177.983 458.25 206.983L284.25 377.983C273.25 387.983 273.25 406.983 284.25 417.983ZM332.25 397.983L492.25 553.983C504.25 564.983 483.25 585.983 471.25 573.983L297.25 403.983C294.25 400.983 294.25 394.983 297.25 390.983L471.25 220.983C483.25 209.983 504.25 229.983 492.25 240.983L332.25 397.983Z" fill="black"/>
</svg>
