<svg width="328" height="376" viewBox="0 0 328 376" fill="none" xmlns="http://www.w3.org/2000/svg">
<path d="M190.102 187.212C190.102 181.408 192.975 173.01 196.61 168.335L304.654 29.4224C308.248 24.8007 306.532 21.054 300.672 21.054H26.8963C21.1025 21.054 19.2788 24.7481 22.9145 29.4224L130.958 168.335C134.552 172.957 137.466 181.365 137.466 187.23V347.393C137.466 353.206 141.774 356.196 147.243 354.008L180.325 340.776C185.724 338.616 190.102 332.244 190.102 326.356V187.212ZM211.156 187.212V326.356C211.156 340.846 201.544 354.964 188.144 360.324L155.063 373.556C135.753 381.28 116.412 368.09 116.412 347.393V187.23C116.412 186.078 115.078 182.212 114.339 181.261L6.2954 42.3484C-8.03422 23.9246 3.48032 0 26.8963 0H300.672C324.222 0 335.522 24.0274 321.273 42.3484L213.229 181.261C212.479 182.226 211.156 186.073 211.156 187.212Z" fill="black"/>
</svg>
