<svg width="598" height="357" viewBox="0 0 598 357" fill="none" xmlns="http://www.w3.org/2000/svg">
<path d="M88.9 250.491L57.3364 218.789L57.3353 218.788C46.1636 207.571 28.0365 207.571 16.8649 218.788L16.8635 218.789C5.71218 229.991 5.71218 248.134 16.8635 259.336L16.8639 259.336L97.2639 340.086L97.2648 340.087C108.436 351.304 126.564 351.304 137.735 340.087L137.736 340.086L218.136 259.336L218.137 259.336C229.288 248.134 229.288 229.991 218.137 218.789L218.135 218.788C206.964 207.571 188.836 207.571 177.665 218.788L177.664 218.789L146.1 250.491V37.1875C146.1 21.3788 133.33 8.5 117.5 8.5C101.67 8.5 88.9 21.3788 88.9 37.1875V250.491Z" stroke="black" stroke-width="17"/>
<path d="M319.143 249.5C303.185 249.5 290.5 262.627 290.5 278.5C290.5 294.373 303.185 307.5 319.143 307.5H560.857C576.815 307.5 589.5 294.373 589.5 278.5C589.5 262.627 576.815 249.5 560.857 249.5H319.143Z" stroke="black" stroke-width="17"/>
<path d="M319.1 129.5C303.149 129.5 290.5 142.644 290.5 158.5C290.5 174.356 303.149 187.5 319.1 187.5H479.9C495.851 187.5 508.5 174.356 508.5 158.5C508.5 142.644 495.851 129.5 479.9 129.5H319.1Z" stroke="black" stroke-width="17"/>
<path d="M319 8.5C303.065 8.5 290.5 21.6825 290.5 37.5C290.5 53.3175 303.065 66.5 319 66.5H399C414.935 66.5 427.5 53.3175 427.5 37.5C427.5 21.6825 414.935 8.5 399 8.5H319Z" stroke="black" stroke-width="17"/>
</svg>
