<svg width="366" height="388" viewBox="0 0 366 388" fill="none" xmlns="http://www.w3.org/2000/svg">
<path fill-rule="evenodd" clip-rule="evenodd" d="M183 21.75C163.042 21.75 143.902 29.6781 129.79 43.7902C115.678 57.9023 107.75 77.0425 107.75 97C107.75 116.958 115.678 136.098 129.79 150.21C143.902 164.322 163.042 172.25 183 172.25C202.958 172.25 222.098 164.322 236.21 150.21C250.322 136.098 258.25 116.958 258.25 97C258.25 77.0425 250.322 57.9023 236.21 43.7902C222.098 29.6781 202.958 21.75 183 21.75ZM86.25 97C86.25 71.3403 96.4433 46.7316 114.587 28.5874C132.732 10.4433 157.34 0.25 183 0.25C208.66 0.25 233.268 10.4433 251.413 28.5874C269.557 46.7316 279.75 71.3403 279.75 97C279.75 122.66 269.557 147.268 251.413 165.413C233.268 183.557 208.66 193.75 183 193.75C157.34 193.75 132.732 183.557 114.587 165.413C96.4433 147.268 86.25 122.66 86.25 97ZM183 236.75C92.5495 236.75 21.75 300.605 21.75 376.5C21.75 379.351 20.6174 382.085 18.6014 384.101C16.5854 386.117 13.8511 387.25 11 387.25C8.14892 387.25 5.41462 386.117 3.3986 384.101C1.38259 382.085 0.25 379.351 0.25 376.5C0.25 286.135 83.455 215.25 183 215.25C282.545 215.25 365.75 286.135 365.75 376.5C365.75 379.351 364.617 382.085 362.601 384.101C360.585 386.117 357.851 387.25 355 387.25C352.149 387.25 349.415 386.117 347.399 384.101C345.383 382.085 344.25 379.351 344.25 376.5C344.25 300.605 273.451 236.75 183 236.75Z" fill="black"/>
</svg>
