<svg width="539" height="110" viewBox="0 0 539 110" fill="none" xmlns="http://www.w3.org/2000/svg">
<path d="M506.063 45.2138C528.927 54.0138 535.439 62.9655 532.41 79.3517C529.382 96.1931 514.997 110 491.224 110C466.239 110 457.154 95.7379 459.88 76.0138H480.019C478.807 86.1793 483.804 93.0069 494.555 93.0069C503.337 93.0069 509.848 88.6069 511.211 80.7173C512.877 71.9173 507.729 67.2138 494.706 62.2069C474.416 55.531 466.694 45.3655 469.722 29.4345C473.205 10.469 489.255 0 509.091 0C533.773 0 541.193 16.0828 538.467 33.0759H518.328C519.539 24.8828 516.662 17.1448 506.214 17.1448C497.28 17.1448 491.981 21.8483 490.921 27.9172C489.255 36.2621 495.009 40.8138 506.063 45.2138Z" fill="black"/>
<path d="M408.824 16.9931L402.767 50.069H411.095C422.754 50.069 431.082 43.0897 432.899 33.0759C434.868 22.6069 429.568 17.1448 418.363 16.9931C414.426 16.9931 408.824 16.9931 408.824 16.9931ZM371.725 108.179L391.41 1.97241H418.817C432.748 1.97241 442.742 3.48965 448.647 9.55862C453.796 14.7172 455.31 22 453.644 31.2552C451.221 44.3034 441.228 53.8621 430.628 57.8069L430.477 58.1103C437.442 60.9931 440.319 68.1241 440.773 78.8966C441.379 91.4897 441.985 104.234 443.196 108.179H422.149C421.089 105.145 420.332 95.8897 420.18 82.9931C420.029 69.4897 416.395 65.3931 406.855 65.2414H399.89L392.016 108.179H371.725Z" fill="black"/>
<path d="M314.656 64.7862H337.218L335.25 40.5103C334.795 33.9862 334.644 25.4897 334.493 18.9655H334.19C331.464 25.6414 328.284 34.2897 325.559 40.5103L314.656 64.7862ZM337.218 80.2621H308.902L296.486 108.179H275.741L325.407 1.97241H350.997L360.991 108.179H339.641L337.218 80.2621Z" fill="black"/>
<path d="M255.722 64.9379H276.769C269.047 92.2483 251.028 110 225.438 110C197.273 110 185.765 86.331 191.368 55.531C197.273 23.669 218.472 0 246.637 0C272.681 0 283.28 18.3586 280.555 44.6069H259.356C261.173 27.9172 255.722 16.8414 243.305 16.8414C228.315 16.8414 217.11 32.9241 213.021 55.2276C208.933 77.3793 214.535 93.1586 229.223 93.1586C241.337 93.1586 250.876 82.6897 255.722 64.9379Z" fill="black"/>
<path d="M145.438 108.179L149.678 85.5724H170.271L166.031 108.179H145.438Z" fill="black"/>
<path d="M93.0131 1.97241H149.796L146.616 19.1172H110.427L105.127 47.0345H139.045L136.017 63.8759H102.098L93.9217 108.179H73.4799L93.0131 1.97241Z" fill="black"/>
<path d="M22.1116 1.97241H78.8943L75.7145 19.1172H39.5249L34.2252 47.0345H68.1435L65.1151 63.8759H31.1968L23.0201 108.179H2.57828L20.0632 13.1095L22.1116 1.97241Z" fill="black"/>
<path d="M20.0632 13.1095L22.1116 1.97241H0L20.0632 13.1095Z" fill="black"/>
<path d="M20.0632 13.1095L22.1116 1.97241H0L20.0632 13.1095Z" fill="black"/>
<path d="M20.0632 13.1095L22.1116 1.97241H0L20.0632 13.1095Z" fill="black"/>
<path d="M20.0632 13.1095L22.1116 1.97241H0L20.0632 13.1095Z" fill="black"/>
</svg>
