<svg width="454" height="453" viewBox="0 0 454 453" fill="none" xmlns="http://www.w3.org/2000/svg">
<path fill-rule="evenodd" clip-rule="evenodd" d="M57.1406 336.003C57.1406 303.763 82.7149 277.149 114.845 277.149C146.974 277.149 172.549 303.763 172.549 336.003C172.549 368.241 146.974 394.855 114.845 394.855C82.7149 394.855 57.1406 368.241 57.1406 336.003ZM114.845 298.72C95.165 298.72 78.7394 315.148 78.7394 336.003C78.7394 356.856 95.165 373.284 114.845 373.284C134.524 373.284 150.95 356.856 150.95 336.003C150.95 315.148 134.524 298.72 114.845 298.72Z" fill="black"/>
<path fill-rule="evenodd" clip-rule="evenodd" d="M379.157 11.2307C393.758 -3.73184 417.547 -3.73184 432.148 11.2307C446.597 26.0379 446.597 49.9325 432.148 64.7397L411.35 86.0525L450.911 126.592C454.997 130.78 454.997 137.459 450.911 141.647L422.767 170.488C420.735 172.571 417.947 173.746 415.033 173.746C412.121 173.746 409.331 172.571 407.298 170.488L368.129 130.346L355.066 143.733L385.244 174.659C389.33 178.848 389.33 185.526 385.244 189.715L357.101 218.555C355.068 220.637 352.28 221.813 349.366 221.813C346.455 221.813 343.666 220.637 341.632 218.555L311.843 188.026L217.24 284.975C240.878 334.353 227.631 394.596 184.358 428.704C138.824 464.596 74.3249 460.274 33.7574 418.7C-6.70374 377.236 -10.8395 311.576 24.0043 265.153C57.1899 220.939 116.06 207.095 164.512 231.196L379.157 11.2307ZM416.681 26.2859C410.558 20.0112 400.747 20.0112 394.624 26.2859L174.267 252.105C170.781 255.677 165.298 256.397 161.006 253.846C120.9 229.988 69.6943 240.243 41.2865 278.091C12.7932 316.052 16.2283 369.831 49.2254 403.645C82.116 437.35 134.167 440.786 170.977 411.771C207.905 382.663 218.149 329.817 194.656 288.342C192.294 284.17 192.972 278.939 196.322 275.505L304.108 165.046C306.143 162.963 308.931 161.788 311.843 161.788C314.756 161.788 317.545 162.963 319.577 165.046L349.366 195.574L362.429 182.187L332.251 151.261C328.165 147.072 328.165 140.394 332.251 136.206L360.395 107.365C362.427 105.282 365.215 104.107 368.129 104.107C371.041 104.107 373.831 105.282 375.864 107.365L415.033 147.507L428.096 134.12L388.538 93.5802C384.451 89.3917 384.451 82.7133 388.538 78.5249L416.681 49.6844C422.955 43.2541 422.955 32.7163 416.681 26.2859Z" fill="black"/>
</svg>
