<svg width="793" height="793" viewBox="0 0 793 793" fill="none" xmlns="http://www.w3.org/2000/svg">
<path d="M395.996 137.698C253.017 137.698 136.697 254.019 136.697 397C136.697 539.981 253.017 656.302 395.996 656.302C538.975 656.302 655.295 539.981 655.295 397C655.295 254.019 538.975 137.698 395.996 137.698ZM395.996 635.558C264.457 635.558 157.441 528.545 157.441 397C157.441 265.455 264.457 158.442 395.996 158.442C527.535 158.442 634.551 265.455 634.551 397C634.551 528.545 527.535 635.558 395.996 635.558Z" fill="black"/>
<path d="M542.96 358.633H434.363V250.035C434.363 244.284 429.704 239.631 423.958 239.631H368.034C362.288 239.631 357.63 244.284 357.63 250.035V358.633H249.033C243.287 358.633 238.628 363.287 238.628 369.038V424.963C238.628 430.714 243.287 435.367 249.033 435.367H357.63V543.965C357.63 549.716 362.288 554.37 368.034 554.37H423.958C429.704 554.37 434.363 549.716 434.363 543.965V435.367H542.96C548.705 435.367 553.364 430.714 553.364 424.963V369.038C553.364 363.287 548.705 358.633 542.96 358.633ZM532.555 414.558H423.958C418.212 414.558 413.554 419.212 413.554 424.963V533.56H378.439V424.963C378.439 419.212 373.78 414.558 368.034 414.558H259.437V379.442H368.034C373.78 379.442 378.439 374.789 378.439 369.038V260.44H413.554V369.038C413.554 374.789 418.212 379.442 423.958 379.442H532.555V414.558Z" fill="black"/>
</svg>
