<svg width="444" height="444" viewBox="0 0 444 444" fill="none" xmlns="http://www.w3.org/2000/svg">
<path d="M222 77C142.046 77 77 142.046 77 222C77 301.954 142.046 367 222 367C301.954 367 367 301.954 367 222C367 142.046 301.954 77 222 77ZM222 355.4C148.444 355.4 88.6 295.559 88.6 222C88.6 148.441 148.444 88.6 222 88.6C295.556 88.6 355.4 148.441 355.4 222C355.4 295.559 295.556 355.4 222 355.4Z" fill="black"/>
<path d="M304.182 200.545H243.455V139.818C243.455 136.602 240.849 134 237.636 134H206.364C203.151 134 200.545 136.602 200.545 139.818V200.545H139.818C136.605 200.545 134 203.148 134 206.364V237.636C134 240.852 136.605 243.455 139.818 243.455H200.545V304.182C200.545 307.398 203.151 310 206.364 310H237.636C240.849 310 243.455 307.398 243.455 304.182V243.455H304.182C307.395 243.455 310 240.852 310 237.636V206.364C310 203.148 307.395 200.545 304.182 200.545ZM298.364 231.818H237.636C234.423 231.818 231.818 234.42 231.818 237.636V298.364H212.182V237.636C212.182 234.42 209.577 231.818 206.364 231.818H145.636V212.182H206.364C209.577 212.182 212.182 209.58 212.182 206.364V145.636H231.818V206.364C231.818 209.58 234.423 212.182 237.636 212.182H298.364V231.818Z" fill="black"/>
</svg>
