<svg width="427" height="466" viewBox="0 0 427 466" fill="none" xmlns="http://www.w3.org/2000/svg">
<path d="M73.0079 181.497L73.008 181.497C75.7809 149.776 90.7336 121.038 115.112 100.571C136.534 82.5864 163.698 72.6791 191.614 72.6791C226.956 72.6791 260.241 88.2018 282.937 115.267C303.389 139.657 313.127 170.552 310.354 202.277C307.581 233.994 292.636 262.731 268.257 283.199C246.828 301.187 219.657 311.091 191.749 311.091C156.406 311.091 123.121 295.572 100.418 268.51C79.9666 244.116 70.2281 213.218 73.0079 181.497ZM295.596 104.633C269.76 73.8132 231.854 56.1367 191.614 56.1367C159.821 56.1367 128.873 67.4177 104.487 87.898C76.7292 111.206 59.6987 143.936 56.5391 180.055C53.3794 216.174 64.4613 251.368 87.7589 279.143C113.602 309.96 151.508 327.633 191.749 327.633C223.542 327.633 254.489 316.355 278.882 295.872C306.64 272.567 323.671 239.834 326.823 203.715C329.983 167.596 318.894 132.405 295.596 104.633Z" fill="black" stroke="black" stroke-width="2"/>
<path d="M291.757 335.797L291.193 335.124L290.453 335.596L285.082 339.022C285.082 339.022 285.082 339.022 285.081 339.022C257.184 356.799 224.897 366.196 191.706 366.196C140.042 366.196 91.3861 343.508 58.2092 303.95C-3.54337 230.313 6.09517 120.126 79.6874 58.3323C111.015 32.0261 150.755 17.5422 191.585 17.5422C243.278 17.5422 291.955 40.2403 325.146 79.82C381.12 146.574 379.023 245.302 320.271 309.466L315.964 314.171L315.372 314.817L315.935 315.489L405.193 421.917C407.904 425.151 409.191 429.241 408.823 433.443C408.456 437.649 406.476 441.456 403.244 444.168C400.4 446.553 396.803 447.868 393.108 447.868C388.421 447.865 384.011 445.811 381.001 442.225L291.757 335.797ZM417.852 411.284L337.27 315.188C396.886 244.877 397.54 140.411 337.806 69.1905C301.474 25.8517 248.176 1 191.585 1C146.877 1 103.362 16.8609 69.0626 45.6596C-11.5208 113.319 -22.0642 233.954 45.5497 314.58C81.8673 357.893 135.144 382.738 191.706 382.738C225.613 382.738 258.666 373.777 287.76 356.763L368.341 452.855C374.493 460.197 383.523 464.406 393.107 464.41C400.688 464.41 408.062 461.721 413.869 456.841C420.48 451.291 424.538 443.492 425.292 434.889C426.046 426.285 423.402 417.895 417.852 411.284Z" fill="black" stroke="black" stroke-width="2"/>
</svg>
