<svg width="482" height="322" viewBox="0 0 482 322" fill="none" xmlns="http://www.w3.org/2000/svg">
<path d="M477.259 139.195C438.666 54.6404 345.932 0 241.006 0C136.072 0 43.3296 54.6404 4.74548 139.195C-1.58183 153.056 -1.58183 168.944 4.74548 182.805C43.3296 267.36 136.072 322 241.006 322C345.932 322 438.666 267.36 477.275 182.797C483.578 168.944 483.578 153.056 477.259 139.195ZM446.458 168.721C413.853 240.126 331.292 288.105 241.006 288.105C150.704 288.105 68.1426 240.126 35.5632 168.721C33.3217 163.814 33.3217 158.186 35.5632 153.279C68.1426 81.8737 150.704 33.8947 241.006 33.8947C331.292 33.8947 413.853 81.8737 446.441 153.271C448.691 158.178 448.691 163.822 446.458 168.721ZM241.006 76.2632C194.308 76.2632 156.311 114.279 156.311 161C156.311 207.721 194.308 245.737 241.006 245.737C287.704 245.737 325.701 207.721 325.701 161C325.701 114.279 287.704 76.2632 241.006 76.2632ZM241.006 211.842C212.984 211.842 190.189 189.036 190.189 161C190.189 132.964 212.984 110.158 241.006 110.158C269.028 110.158 291.823 132.964 291.823 161C291.823 189.036 269.028 211.842 241.006 211.842Z" fill="black"/>
</svg>
