<svg width="594" height="579" viewBox="0 0 594 579" fill="none" xmlns="http://www.w3.org/2000/svg">
<rect x="0.015" y="0.015" width="593.97" height="578.97" stroke="black" stroke-width="0.03"/>
<path d="M417.896 235.327L413.2 318.15L413.2 318.151C411.939 340.454 429.015 359.494 451.328 360.664L451.329 360.664C473.619 361.828 492.699 344.724 493.963 322.444L493.963 322.444L504.184 142.112L504.184 142.111C505.445 119.808 488.369 100.768 466.056 99.5981L466.055 99.5981L285.645 90.1633L285.644 90.1633C263.355 88.9993 244.274 106.104 243.01 128.384L243.01 128.386C241.749 150.689 258.825 169.728 281.137 170.899L281.139 170.899L363.998 175.23L103.249 408.986C86.6194 423.894 85.1332 449.449 100.04 466.07C114.947 482.691 140.517 483.991 157.147 469.083L417.896 235.327Z" stroke="black" stroke-width="17"/>
</svg>
