<svg width="441" height="336" viewBox="0 0 441 336" fill="none" xmlns="http://www.w3.org/2000/svg">
<path fill-rule="evenodd" clip-rule="evenodd" d="M0.4375 73.7666C0.4375 33.2381 33.2792 0.383301 73.7917 0.383301H367.208C407.721 0.383301 440.562 33.2381 440.562 73.7666V262.467C440.562 302.995 407.721 335.85 367.208 335.85H73.7917C33.2792 335.85 0.4375 302.995 0.4375 262.467V73.7666ZM73.7917 21.35C44.8543 21.35 21.3958 44.8177 21.3958 73.7666V262.467C21.3958 291.415 44.8543 314.883 73.7917 314.883H367.208C396.146 314.883 419.604 291.415 419.604 262.467V73.7666C419.604 44.8177 396.146 21.35 367.208 21.35H73.7917Z" fill="black"/>
<path fill-rule="evenodd" clip-rule="evenodd" d="M52.8333 63.2834C52.8333 57.4936 57.525 52.8 63.3124 52.8H377.687C383.474 52.8 388.167 57.4936 388.167 63.2834C388.167 69.0731 383.474 73.7667 377.687 73.7667H63.3124C57.525 73.7667 52.8333 69.0731 52.8333 63.2834Z" fill="black"/>
<path fill-rule="evenodd" clip-rule="evenodd" d="M52.8333 115.7C52.8333 109.91 57.525 105.217 63.3124 105.217H377.687C383.474 105.217 388.167 109.91 388.167 115.7C388.167 121.49 383.474 126.183 377.687 126.183H63.3124C57.525 126.183 52.8333 121.49 52.8333 115.7Z" fill="black"/>
<path fill-rule="evenodd" clip-rule="evenodd" d="M63.3124 157.633C57.525 157.633 52.8333 162.328 52.8333 168.117C52.8333 173.906 57.525 178.6 63.3124 178.6H169.152C174.007 202.525 195.151 220.533 220.5 220.533C245.849 220.533 266.994 202.525 271.848 178.6H377.687C383.474 178.6 388.167 173.906 388.167 168.117C388.167 162.328 383.474 157.633 377.687 157.633H63.3124ZM250.148 178.6H190.852C195.168 190.815 206.812 199.567 220.5 199.567C234.188 199.567 245.832 190.815 250.148 178.6Z" fill="black"/>
</svg>
